<svg width="42" height="41" viewBox="0 0 42 41" fill="none" xmlns="http://www.w3.org/2000/svg">
<g clip-path="url(#clip0_81_37)">
<path d="M21 4.84028C17.4156 4.83618 13.9049 5.85792 10.8825 7.78485C7.86012 9.71178 5.45227 12.4634 3.94337 15.7147C2.43446 18.9661 1.88752 22.5813 2.36714 26.1335C2.84675 29.6857 4.3329 33.0264 6.65005 35.7611L6.99171 36.1597H35.0084L35.35 35.7611C37.6672 33.0264 39.1533 29.6857 39.633 26.1335C40.1126 22.5813 39.5656 18.9661 38.0567 15.7147C36.5478 12.4634 34.14 9.71178 31.1176 7.78485C28.0952 5.85792 24.5844 4.83618 21 4.84028ZM30.7945 15.6369L24.0523 22.2539C24.3969 22.9824 24.4729 23.8093 24.2668 24.5884C24.0607 25.3676 23.5859 26.0488 22.9262 26.5117C22.2664 26.9746 21.4643 27.1894 20.6616 27.1181C19.8588 27.0469 19.1071 26.6941 18.5392 26.1222C17.9714 25.5504 17.624 24.7962 17.5584 23.9929C17.4928 23.1897 17.7132 22.3891 18.1808 21.7327C18.6483 21.0762 19.3329 20.6062 20.1135 20.4057C20.894 20.2051 21.7204 20.2869 22.4464 20.6367L29.1773 14.0197L30.7945 15.6369ZM4.60005 22.6639H8.47227V24.9417H4.55449C4.55449 24.4975 4.49755 24.0647 4.49755 23.6092C4.49755 23.1536 4.52032 22.9828 4.5431 22.6639H4.60005ZM10.1578 11.275L12.9595 14.0767L11.2853 15.6483L8.47227 12.8581C8.97716 12.282 9.52133 11.7417 10.1009 11.2408L10.1578 11.275ZM22.1389 11.1497H19.8612V7.16362H21C21.4214 7.16362 21.7973 7.16362 22.1389 7.22056V11.1497ZM37.5025 23.6206C37.5025 24.0647 37.5025 24.5203 37.4456 24.9531H33.4367V22.6753H37.457C37.4798 22.9828 37.5025 23.3017 37.5025 23.6206Z" fill="white"/>
</g>
<defs>
<clipPath id="clip0_81_37">
<rect width="41" height="41" fill="white" transform="translate(0.5)"/>
</clipPath>
</defs>
</svg>
