<svg width="26" height="27" viewBox="0 0 26 27" fill="none" xmlns="http://www.w3.org/2000/svg">
<path d="M13.0002 5.375C7.5835 5.375 2.95766 8.74417 1.0835 13.5C2.95766 18.2558 7.5835 21.625 13.0002 21.625C18.4168 21.625 23.0427 18.2558 24.9168 13.5C23.0427 8.74417 18.4168 5.375 13.0002 5.375ZM13.0002 18.9167C10.0102 18.9167 7.5835 16.49 7.5835 13.5C7.5835 10.51 10.0102 8.08333 13.0002 8.08333C15.9902 8.08333 18.4168 10.51 18.4168 13.5C18.4168 16.49 15.9902 18.9167 13.0002 18.9167ZM13.0002 10.25C11.2018 10.25 9.75016 11.7017 9.75016 13.5C9.75016 15.2983 11.2018 16.75 13.0002 16.75C14.7985 16.75 16.2502 15.2983 16.2502 13.5C16.2502 11.7017 14.7985 10.25 13.0002 10.25Z" fill="white"/>
</svg>
