<svg width="43" height="43" viewBox="0 0 43 43" fill="none" xmlns="http://www.w3.org/2000/svg">
<path d="M18.4499 39V26.75H14.95V16.25C14.95 15.2875 15.293 14.4633 15.979 13.7773C16.665 13.0913 17.4886 12.7488 18.4499 12.75H25.4499C26.4124 12.75 27.2367 13.093 27.9227 13.779C28.6087 14.465 28.9511 15.2887 28.9499 16.25V26.75H25.4499V39H18.4499ZM21.9499 11C20.9874 11 20.1632 10.657 19.4772 9.971C18.7912 9.285 18.4488 8.46134 18.4499 7.5C18.4499 6.5375 18.7929 5.71325 19.4789 5.02725C20.1649 4.34125 20.9886 3.99884 21.9499 4C22.9124 4 23.7367 4.343 24.4227 5.029C25.1087 5.715 25.4511 6.53867 25.4499 7.5C25.4499 8.4625 25.1069 9.28675 24.4209 9.97275C23.7349 10.6588 22.9113 11.0012 21.9499 11Z" fill="white"/>
</svg>
