<svg width="25" height="24" viewBox="0 0 25 24" fill="none" xmlns="http://www.w3.org/2000/svg">
<path fill-rule="evenodd" clip-rule="evenodd" d="M22.5 12C22.5 17.523 18.023 22 12.5 22C10.9 22 9.38801 21.624 8.04801 20.956C7.69404 20.7731 7.28542 20.7258 6.89901 20.823L4.67301 21.419C4.45268 21.4778 4.22077 21.4776 4.00054 21.4184C3.78031 21.3593 3.57952 21.2432 3.41833 21.0819C3.25713 20.9206 3.1412 20.7197 3.08217 20.4995C3.02314 20.2792 3.02308 20.0473 3.08201 19.827L3.67701 17.601C3.77379 17.2148 3.72613 16.8065 3.54301 16.453C2.85464 15.0697 2.49756 13.5451 2.50001 12C2.50001 6.477 6.97701 2 12.5 2C18.023 2 22.5 6.477 22.5 12ZM12.5 7.25C12.6989 7.25 12.8897 7.32902 13.0303 7.46967C13.171 7.61032 13.25 7.80109 13.25 8V8.01C14.339 8.285 15.25 9.143 15.25 10.333C15.25 10.5319 15.171 10.7227 15.0303 10.8633C14.8897 11.004 14.6989 11.083 14.5 11.083C14.3011 11.083 14.1103 11.004 13.9697 10.8633C13.829 10.7227 13.75 10.5319 13.75 10.333C13.75 9.949 13.324 9.417 12.5 9.417C11.676 9.417 11.25 9.949 11.25 10.333C11.25 10.717 11.676 11.25 12.5 11.25C13.885 11.25 15.25 12.21 15.25 13.667C15.25 14.857 14.339 15.716 13.25 15.99V16C13.25 16.1989 13.171 16.3897 13.0303 16.5303C12.8897 16.671 12.6989 16.75 12.5 16.75C12.3011 16.75 12.1103 16.671 11.9697 16.5303C11.829 16.3897 11.75 16.1989 11.75 16V15.99C10.661 15.716 9.75001 14.857 9.75001 13.667C9.75001 13.4681 9.82903 13.2773 9.96968 13.1367C10.1103 12.996 10.3011 12.917 10.5 12.917C10.6989 12.917 10.8897 12.996 11.0303 13.1367C11.171 13.2773 11.25 13.4681 11.25 13.667C11.25 14.051 11.676 14.583 12.5 14.583C13.324 14.583 13.75 14.051 13.75 13.667C13.75 13.283 13.324 12.75 12.5 12.75C11.115 12.75 9.75001 11.79 9.75001 10.333C9.75001 9.143 10.661 8.285 11.75 8.01V8C11.75 7.80109 11.829 7.61032 11.9697 7.46967C12.1103 7.32902 12.3011 7.25 12.5 7.25Z" fill="black"/>
</svg>
