<svg width="26" height="26" viewBox="0 0 26 26" fill="none" xmlns="http://www.w3.org/2000/svg">
<path d="M13 5.95837C14.0056 5.95837 14.97 6.35785 15.6811 7.06893C16.3922 7.78 16.7917 8.74443 16.7917 9.75004C16.7917 10.7557 16.3922 11.7201 15.6811 12.4312C14.97 13.1422 14.0056 13.5417 13 13.5417C11.9944 13.5417 11.03 13.1422 10.3189 12.4312C9.60781 11.7201 9.20833 10.7557 9.20833 9.75004C9.20833 8.74443 9.60781 7.78 10.3189 7.06893C11.03 6.35785 11.9944 5.95837 13 5.95837ZM5.41667 8.66671C6.02333 8.66671 6.58667 8.82921 7.07417 9.12171C6.91167 10.6709 7.36667 12.2092 8.29833 13.4117C7.75667 14.4517 6.67333 15.1667 5.41667 15.1667C4.55471 15.1667 3.72806 14.8243 3.11857 14.2148C2.50908 13.6053 2.16667 12.7787 2.16667 11.9167C2.16667 11.0548 2.50908 10.2281 3.11857 9.61861C3.72806 9.00912 4.55471 8.66671 5.41667 8.66671ZM20.5833 8.66671C21.4453 8.66671 22.2719 9.00912 22.8814 9.61861C23.4909 10.2281 23.8333 11.0548 23.8333 11.9167C23.8333 12.7787 23.4909 13.6053 22.8814 14.2148C22.2719 14.8243 21.4453 15.1667 20.5833 15.1667C19.3267 15.1667 18.2433 14.4517 17.7017 13.4117C18.6462 12.1923 19.0846 10.6559 18.9258 9.12171C19.4133 8.82921 19.9767 8.66671 20.5833 8.66671ZM5.95833 19.7709C5.95833 17.5284 9.11083 15.7084 13 15.7084C16.8892 15.7084 20.0417 17.5284 20.0417 19.7709V21.6667H5.95833V19.7709ZM0 21.6667V20.0417C0 18.5359 2.0475 17.2684 4.82083 16.9C4.18167 17.6367 3.79167 18.655 3.79167 19.7709V21.6667H0ZM26 21.6667H22.2083V19.7709C22.2083 18.655 21.8183 17.6367 21.1792 16.9C23.9525 17.2684 26 18.5359 26 20.0417V21.6667Z" fill="black"/>
</svg>
