<svg width="31" height="31" viewBox="0 0 31 31" fill="none" xmlns="http://www.w3.org/2000/svg">
<path d="M21.3089 3.71423H24.5231C25.0915 3.71423 25.6365 3.94 26.0384 4.34186C26.4402 4.74373 26.666 5.28877 26.666 5.85709V27.2857C26.666 27.854 26.4402 28.399 26.0384 28.8009C25.6365 29.2028 25.0915 29.4285 24.5231 29.4285H7.38028C6.81196 29.4285 6.26692 29.2028 5.86506 28.8009C5.46319 28.399 5.23743 27.854 5.23743 27.2857V5.85709C5.23743 5.28877 5.46319 4.74373 5.86506 4.34186C6.26692 3.94 6.81196 3.71423 7.38028 3.71423H10.5946" stroke="#F8F8F8" stroke-linecap="round" stroke-linejoin="round"/>
<path d="M19.166 1.57141H12.7375C11.554 1.57141 10.5946 2.5308 10.5946 3.71427V4.7857C10.5946 5.96916 11.554 6.92855 12.7375 6.92855H19.166C20.3495 6.92855 21.3089 5.96916 21.3089 4.7857V3.71427C21.3089 2.5308 20.3495 1.57141 19.166 1.57141Z" stroke="#F8F8F8" stroke-linecap="round" stroke-linejoin="round"/>
<path d="M10.5946 12.2856H21.3089M10.5946 17.6428H21.3089M10.5946 22.9999H21.3089" stroke="#F8F8F8" stroke-linecap="round" stroke-linejoin="round"/>
</svg>
