<svg width="12" height="12" viewBox="0 0 12 12" fill="none" xmlns="http://www.w3.org/2000/svg">
<path d="M10.8434 6.48934V8.07573C10.8434 8.63672 10.6205 9.17472 10.2239 9.5714C9.82718 9.96808 9.28917 10.1909 8.72819 10.1909H3.44021C2.87922 10.1909 2.34121 9.96808 1.94454 9.5714C1.54786 9.17472 1.32501 8.63672 1.32501 8.07573V6.80662C1.32501 6.72247 1.35844 6.64177 1.41794 6.58227C1.47744 6.52277 1.55814 6.48934 1.64229 6.48934H10.8434ZM10.8434 6.48934V3.31655C10.8434 2.75556 10.6205 2.21756 10.2239 1.82088C9.82718 1.4242 9.28917 1.20135 8.72819 1.20135H6.0842M8.19939 10.1909L8.72819 11.2485M3.969 10.1909L3.44021 11.2485" stroke="black" stroke-width="0.725" stroke-linecap="round" stroke-linejoin="round"/>
<path d="M7.88209 3.84535H4.28627C4.11123 3.84535 3.9711 3.70363 3.99014 3.52913C4.06734 2.82741 4.42534 1.20135 6.08418 1.20135C7.74302 1.20135 8.10102 2.82741 8.17822 3.52913C8.19726 3.70363 8.05713 3.84535 7.88209 3.84535Z" stroke="black" stroke-width="0.725" stroke-linecap="round" stroke-linejoin="round"/>
</svg>
