<svg width="12" height="11" viewBox="0 0 12 11" fill="none" xmlns="http://www.w3.org/2000/svg">
<path d="M8.64567 0.201355C9.0862 0.201285 9.51026 0.374465 9.83183 0.685769C10.1534 0.997072 10.3484 1.42319 10.3773 1.87769L10.3808 1.99537V3.82527C10.7527 3.90392 11.0894 4.10643 11.3394 4.40181C11.5893 4.69719 11.7387 5.06914 11.7647 5.4607L11.7689 5.58341V9.88906C11.769 9.97872 11.7367 10.0652 11.6783 10.1315C11.6199 10.1977 11.5396 10.239 11.4532 10.2471C11.3669 10.2552 11.2807 10.2295 11.2117 10.1752C11.1427 10.1209 11.0958 10.0419 11.0804 9.95364L11.0748 9.88906V8.09504H1.35817V9.88906C1.35833 9.97872 1.32602 10.0652 1.26759 10.1315C1.20917 10.1977 1.12887 10.239 1.0425 10.2471C0.956139 10.2552 0.869972 10.2295 0.800968 10.1752C0.731964 10.1209 0.685126 10.0419 0.669676 9.95364L0.664124 9.88906V5.58341C0.664042 5.16984 0.802164 4.76893 1.05511 4.44855C1.30806 4.12817 1.6603 3.90799 2.05222 3.82527V1.99537C2.05215 1.5399 2.21965 1.10144 2.52073 0.76895C2.82181 0.436458 3.23394 0.234823 3.67351 0.204943L3.78734 0.201355H8.64567ZM10.0338 4.507H2.39924C2.14055 4.507 1.89113 4.60657 1.69957 4.78633C1.50801 4.96608 1.38804 5.21314 1.36303 5.47936L1.35817 5.58341V7.37743H11.0748V5.58341C11.0748 5.31594 10.9785 5.05805 10.8047 4.85999C10.6308 4.66192 10.3919 4.53788 10.1344 4.51202L10.0338 4.507ZM8.64567 0.918963H3.78734C3.52854 0.918975 3.27902 1.01865 3.08745 1.19856C2.89587 1.37846 2.77597 1.62569 2.75113 1.89204L2.74627 1.99537V3.78939H3.44031V3.43059C3.44031 3.33543 3.47688 3.24417 3.54196 3.17688C3.60704 3.10959 3.6953 3.07179 3.78734 3.07179H5.52246C5.61449 3.07179 5.70276 3.10959 5.76784 3.17688C5.83292 3.24417 5.86948 3.33543 5.86948 3.43059V3.78939H6.56353V3.43059C6.56353 3.33543 6.60009 3.24417 6.66517 3.17688C6.73025 3.10959 6.81852 3.07179 6.91055 3.07179H8.64567C8.73771 3.07179 8.82598 3.10959 8.89106 3.17688C8.95614 3.24417 8.9927 3.33543 8.9927 3.43059V3.78939H9.68674V1.99537C9.68675 1.7279 9.59044 1.47001 9.41659 1.27195C9.24273 1.07389 9.00379 0.949841 8.74631 0.923986L8.64567 0.918963Z" fill="black"/>
</svg>
