<svg width="41" height="41" viewBox="0 0 41 41" fill="none" xmlns="http://www.w3.org/2000/svg">
<circle cx="20.5" cy="20.5" r="20.5" fill="#3396F2"/>
<g filter="url(#filter0_d_44_290)">
<path d="M29.7501 18.7355V28.125C29.7501 28.556 29.5789 28.9693 29.2741 29.274C28.9694 29.5788 28.556 29.75 28.1251 29.75H24.0626C23.6316 29.75 23.2183 29.5788 22.9135 29.274C22.6088 28.9693 22.4376 28.556 22.4376 28.125V24.0625C22.4376 23.847 22.352 23.6403 22.1996 23.488C22.0472 23.3356 21.8406 23.25 21.6251 23.25H18.3751C18.1596 23.25 17.9529 23.3356 17.8005 23.488C17.6482 23.6403 17.5626 23.847 17.5626 24.0625V28.125C17.5626 28.556 17.3914 28.9693 17.0866 29.274C16.7819 29.5788 16.3685 29.75 15.9376 29.75H11.8751C11.4441 29.75 11.0308 29.5788 10.726 29.274C10.4213 28.9693 10.2501 28.556 10.2501 28.125V18.7355C10.25 18.5106 10.2967 18.2882 10.3871 18.0822C10.4774 17.8763 10.6096 17.6914 10.7751 17.5391L18.9001 9.8732L18.9113 9.86203C19.2105 9.58998 19.6003 9.43922 20.0046 9.43922C20.409 9.43922 20.7988 9.58998 21.098 9.86203C21.1014 9.866 21.1052 9.86973 21.1091 9.8732L29.2341 17.5391C29.398 17.6922 29.5285 17.8775 29.6173 18.0834C29.706 18.2893 29.7513 18.5113 29.7501 18.7355Z" fill="#96CDFF"/>
<path d="M29.7501 18.7355V28.125C29.7501 28.556 29.5789 28.9693 29.2741 29.274C28.9694 29.5788 28.556 29.75 28.1251 29.75H24.0626C23.6316 29.75 23.2183 29.5788 22.9135 29.274C22.6088 28.9693 22.4376 28.556 22.4376 28.125V24.0625C22.4376 23.847 22.352 23.6403 22.1996 23.488C22.0472 23.3356 21.8406 23.25 21.6251 23.25H18.3751C18.1596 23.25 17.9529 23.3356 17.8005 23.488C17.6482 23.6403 17.5626 23.847 17.5626 24.0625V28.125C17.5626 28.556 17.3914 28.9693 17.0866 29.274C16.7819 29.5788 16.3685 29.75 15.9376 29.75H11.8751C11.4441 29.75 11.0308 29.5788 10.726 29.274C10.4213 28.9693 10.2501 28.556 10.2501 28.125V18.7355C10.25 18.5106 10.2967 18.2882 10.3871 18.0822C10.4774 17.8763 10.6096 17.6914 10.7751 17.5391L18.9001 9.8732L18.9113 9.86203C19.2105 9.58998 19.6003 9.43922 20.0046 9.43922C20.409 9.43922 20.7988 9.58998 21.098 9.86203C21.1014 9.866 21.1052 9.86973 21.1091 9.8732L29.2341 17.5391C29.398 17.6922 29.5285 17.8775 29.6173 18.0834C29.706 18.2893 29.7513 18.5113 29.7501 18.7355Z" stroke="white" stroke-width="1.6"/>
</g>
<g filter="url(#filter1_d_44_290)">
<path d="M26.7427 13.6852C26.8252 13.4377 27.1747 13.4377 27.2572 13.6852L27.741 15.138C27.8475 15.4573 28.0269 15.7475 28.265 15.9855C28.5031 16.2234 28.7933 16.4027 29.1127 16.509L30.5647 16.9927C30.8122 17.0752 30.8122 17.4247 30.5647 17.5072L29.112 17.991C28.7926 18.0975 28.5025 18.2769 28.2645 18.515C28.0265 18.7531 27.8473 19.0433 27.741 19.3627L27.2572 20.8147C27.2394 20.8689 27.205 20.9161 27.1588 20.9496C27.1126 20.983 27.057 21.0011 27 21.0011C26.9429 21.0011 26.8874 20.983 26.8412 20.9496C26.795 20.9161 26.7605 20.8689 26.7427 20.8147L26.259 19.362C26.1526 19.0427 25.9733 18.7526 25.7353 18.5146C25.4974 18.2767 25.2073 18.0974 24.888 17.991L23.4352 17.5072C23.381 17.4895 23.3338 17.455 23.3004 17.4088C23.2669 17.3626 23.2489 17.307 23.2489 17.25C23.2489 17.1929 23.2669 17.1374 23.3004 17.0912C23.3338 17.045 23.381 17.0105 23.4352 16.9927L24.888 16.509C25.2073 16.4026 25.4974 16.2233 25.7353 15.9853C25.9733 15.7474 26.1526 15.4573 26.259 15.138L26.7427 13.6852ZM23.8455 9.86099C23.8562 9.82851 23.877 9.80025 23.9047 9.78022C23.9324 9.76018 23.9658 9.7494 24 9.7494C24.0342 9.7494 24.0675 9.76018 24.0953 9.78022C24.123 9.80025 24.1437 9.82851 24.1545 9.86099L24.4447 10.7325C24.5745 11.121 24.879 11.4255 25.2675 11.5552L26.139 11.8455C26.1715 11.8562 26.1997 11.877 26.2198 11.9047C26.2398 11.9324 26.2506 11.9658 26.2506 12C26.2506 12.0342 26.2398 12.0675 26.2198 12.0953C26.1997 12.123 26.1715 12.1437 26.139 12.1545L25.2675 12.4447C25.0759 12.5086 24.9018 12.6162 24.759 12.759C24.6162 12.9018 24.5086 13.0759 24.4447 13.2675L24.1545 14.139C24.1437 14.1715 24.123 14.1997 24.0953 14.2198C24.0675 14.2398 24.0342 14.2506 24 14.2506C23.9658 14.2506 23.9324 14.2398 23.9047 14.2198C23.877 14.1997 23.8562 14.1715 23.8455 14.139L23.5552 13.2675C23.4914 13.0759 23.3838 12.9018 23.241 12.759C23.0982 12.6162 22.9241 12.5086 22.7325 12.4447L21.861 12.1545C21.8285 12.1437 21.8002 12.123 21.7802 12.0953C21.7602 12.0675 21.7494 12.0342 21.7494 12C21.7494 11.9658 21.7602 11.9324 21.7802 11.9047C21.8002 11.877 21.8285 11.8562 21.861 11.8455L22.7325 11.5552C22.9241 11.4914 23.0982 11.3838 23.241 11.241C23.3838 11.0982 23.4914 10.9241 23.5552 10.7325L23.8455 9.86099ZM29.1472 9.07424C29.1546 9.05289 29.1685 9.03437 29.1869 9.02126C29.2053 9.00816 29.2274 9.00111 29.25 9.00111C29.2726 9.00111 29.2946 9.00816 29.313 9.02126C29.3315 9.03437 29.3453 9.05289 29.3527 9.07424L29.5462 9.65474C29.6325 9.91424 29.8357 10.1175 30.0952 10.2037L30.6757 10.3972C30.6971 10.4046 30.7156 10.4185 30.7287 10.4369C30.7418 10.4553 30.7489 10.4774 30.7489 10.5C30.7489 10.5226 30.7418 10.5446 30.7287 10.563C30.7156 10.5815 30.6971 10.5953 30.6757 10.6027L30.0952 10.7962C29.9673 10.8388 29.8511 10.9106 29.7558 11.0059C29.6605 11.1012 29.5888 11.2174 29.5462 11.3452L29.3527 11.9257C29.3453 11.9471 29.3315 11.9656 29.313 11.9787C29.2946 11.9918 29.2726 11.9989 29.25 11.9989C29.2274 11.9989 29.2053 11.9918 29.1869 11.9787C29.1685 11.9656 29.1546 11.9471 29.1472 11.9257L28.9537 11.3452C28.9112 11.2174 28.8394 11.1012 28.7441 11.0059C28.6488 10.9106 28.5326 10.8388 28.4047 10.7962L27.825 10.6027C27.8036 10.5953 27.7851 10.5815 27.772 10.563C27.7589 10.5446 27.7519 10.5226 27.7519 10.5C27.7519 10.4774 27.7589 10.4553 27.772 10.4369C27.7851 10.4185 27.8036 10.4046 27.825 10.3972L28.4055 10.2037C28.665 10.1175 28.8682 9.91424 28.9545 9.65474L29.1472 9.07499V9.07424Z" fill="#FBC018"/>
<path d="M23.241 11.241L22.8874 10.8875C22.9753 10.7996 23.0416 10.6924 23.0808 10.5745C23.0809 10.5745 23.0809 10.5745 23.0809 10.5744L23.3708 9.70382C23.3709 9.7036 23.371 9.70338 23.371 9.70316C23.3711 9.70311 23.3711 9.70305 23.3711 9.703C23.415 9.57108 23.4992 9.45629 23.6119 9.37488C23.7249 9.29331 23.8607 9.2494 24 9.2494C24.1393 9.2494 24.2751 9.29331 24.388 9.37488C24.5008 9.45635 24.5851 9.57124 24.629 9.70328L24.6289 9.703L24.1545 9.86099L24.6291 9.70382L23.241 11.241ZM23.241 11.241L22.8874 10.8875C22.7996 10.9753 22.6924 11.0416 22.5745 11.0809C22.5745 11.0809 22.5745 11.0809 22.5744 11.0809L21.7038 11.3708C21.7036 11.3709 21.7034 11.371 21.7033 11.371M23.241 11.241L21.7033 11.371M24.919 10.5741C24.9989 10.8135 25.1864 11.001 25.4258 11.081C25.4258 11.081 25.4259 11.081 25.4259 11.081L26.2962 11.3708C26.2963 11.3709 26.2965 11.3709 26.2966 11.371L26.297 11.3711L24.919 10.5741ZM24.919 10.5741L24.4447 10.7325L24.9191 10.5745L24.919 10.5741ZM26.2966 12.629C26.2965 12.629 26.2963 12.6291 26.2962 12.6291L25.4255 12.9191C25.4255 12.9191 25.4255 12.9191 25.4255 12.9191C25.3076 12.9584 25.2004 13.0246 25.1125 13.1125C25.0246 13.2004 24.9584 13.3076 24.9191 13.4255C24.9191 13.4255 24.9191 13.4255 24.9191 13.4255L24.6291 14.2962C24.6291 14.2963 24.629 14.2965 24.629 14.2966L24.6289 14.297L24.1545 14.139L26.2966 12.629ZM26.2966 12.629L26.297 12.6289L26.139 12.1545L26.2966 12.629ZM21.7033 11.371L21.703 11.3711L21.861 11.8455L21.7033 11.371ZM28.6472 8.99002L28.6748 8.91046L28.6472 8.99002ZM28.6472 8.99002V8.99405M28.6472 8.99002V8.99405M28.6472 8.99405L28.48 9.497L28.48 9.49704C28.4435 9.6069 28.3576 9.69275 28.2478 9.72926L28.2474 9.7294L27.6669 9.9229L27.6669 9.92286L27.6612 9.92483C27.5417 9.96627 27.438 10.0439 27.3646 10.147L27.3646 10.147C27.2913 10.2501 27.2519 10.3735 27.2519 10.5C27.2519 10.6265 27.2913 10.7499 27.3646 10.853L27.3646 10.853C27.438 10.956 27.5417 11.0337 27.6612 11.0752L27.6612 11.0752L27.6667 11.077L28.2464 11.2705L28.2469 11.2707C28.301 11.2887 28.3502 11.3191 28.3906 11.3594C28.4309 11.3997 28.4613 11.4489 28.4793 11.5031L28.4794 11.5034L28.6729 12.0839L28.6729 12.0839L28.6748 12.0895C28.7163 12.2091 28.7939 12.3127 28.897 12.3861C29.0001 12.4594 29.1235 12.4989 29.25 12.4989C29.3765 12.4989 29.4999 12.4594 29.603 12.3861L29.313 11.9787L29.603 12.3861C29.706 12.3127 29.7837 12.2091 29.8251 12.0895L29.8252 12.0895L29.8271 12.0839L30.0206 11.5034L30.0207 11.5031C30.0387 11.4489 30.0691 11.3997 30.1094 11.3594C30.1497 11.3191 30.1989 11.2887 30.2531 11.2707L30.2533 11.2706L30.8338 11.0771L30.8339 11.0771L30.8395 11.0752C30.9591 11.0337 31.0627 10.956 31.1361 10.853L31.1361 10.853C31.2094 10.7499 31.2489 10.6265 31.2489 10.5C31.2489 10.3735 31.2094 10.2501 31.1361 10.147L31.1361 10.147C31.0627 10.0439 30.9591 9.96627 30.8395 9.92483L30.8395 9.92479L30.8338 9.9229L30.2533 9.7294L30.2529 9.72926C30.1431 9.69275 30.0572 9.6069 30.0207 9.49704L30.0206 9.49663L29.8271 8.91613L29.8271 8.91612L29.8251 8.91046C29.7837 8.79091 29.706 8.68726 29.603 8.6139L29.603 8.6139C29.4999 8.54054 29.3765 8.50111 29.25 8.50111C29.1235 8.50111 29.0001 8.54053 28.897 8.6139L28.6472 8.99405ZM28.6472 8.99405L28.6728 8.91725L29.145 9.07424L29.1472 9.07499V9.07424C29.1546 9.05289 29.1685 9.03437 29.1869 9.02126C29.2053 9.00816 29.2274 9.00111 29.25 9.00111C29.2726 9.00111 29.2946 9.00816 29.313 9.02126C29.3315 9.03437 29.3453 9.05289 29.3527 9.07424H29.6472V9.07499V9.15593L29.6217 9.23274L29.5138 9.55735L29.5462 9.65474C29.6325 9.91424 29.8357 10.1175 30.0952 10.2037L30.1934 10.2365L30.5176 10.1284L30.5987 10.3716L30.6757 10.3972C30.6971 10.4046 30.7156 10.4185 30.7287 10.4369C30.7418 10.4553 30.7489 10.4774 30.7489 10.5C30.7489 10.5226 30.7418 10.5446 30.7287 10.563C30.7156 10.5815 30.6971 10.5953 30.6757 10.6027L30.5987 10.6284L30.5176 10.8716L30.1934 10.7635L30.0952 10.7962L28.6472 8.99405ZM26.2684 13.5271L26.2683 13.5273L25.7846 14.9799C25.7028 15.2255 25.5648 15.4487 25.3818 15.6318C25.1987 15.8149 24.9755 15.9528 24.7299 16.0346L23.2793 16.5177C23.2789 16.5178 23.2785 16.518 23.278 16.5181C23.1243 16.5689 22.9904 16.6667 22.8954 16.7979L22.8954 16.7979C22.8002 16.9294 22.7489 17.0876 22.7489 17.25C22.7489 17.4124 22.8002 17.5706 22.8954 17.7021C22.9904 17.8332 23.1241 17.931 23.2778 17.9818C23.2783 17.982 23.2788 17.9821 23.2793 17.9823L24.7299 18.4653C24.7299 18.4654 24.73 18.4654 24.73 18.4654C24.9756 18.5472 25.1987 18.6852 25.3818 18.8682C25.5648 19.0513 25.7028 19.2745 25.7846 19.5201L26.2677 20.9707C26.2678 20.971 26.2679 20.9714 26.268 20.9718C26.3188 21.1256 26.4167 21.2595 26.5479 21.3545C26.6794 21.4498 26.8376 21.5011 27 21.5011C27.1624 21.5011 27.3206 21.4498 27.4521 21.3545C27.5832 21.2596 27.6811 21.1257 27.7319 20.972C27.732 20.9716 27.7322 20.9711 27.7323 20.9707L28.2153 19.5208L28.2154 19.5206C28.2972 19.2749 28.4351 19.0516 28.6181 18.8684C28.8012 18.6853 29.0243 18.5473 29.2699 18.4654C29.27 18.4654 29.2701 18.4653 29.2701 18.4653L30.7227 17.9816L30.7228 17.9816C31.4262 17.7471 31.4262 16.7528 30.7228 16.5184L30.7228 16.5184L29.2708 16.0346L29.2706 16.0346C29.0249 15.9528 28.8016 15.8149 28.6184 15.6318C28.4352 15.4487 28.2972 15.2255 28.2153 14.9798L27.7316 13.5273L27.7316 13.5271C27.4971 12.8238 26.5028 12.8238 26.2684 13.5271ZM24.3201 13.9818L24.3199 13.981L24.3201 13.9818ZM25.9818 11.6798L25.981 11.6801L25.9818 11.6798ZM23.3708 14.2962C23.3709 14.2964 23.371 14.2966 23.371 14.2968L21.703 12.6289L21.7032 12.6289C21.7034 12.629 21.7036 12.6291 21.7038 12.6291L22.5744 12.9191C22.5745 12.9191 22.5745 12.9191 22.5745 12.9191C22.6924 12.9584 22.7996 13.0246 22.8874 13.1125C22.9753 13.2004 23.0416 13.3076 23.0808 13.4255C23.0809 13.4255 23.0809 13.4255 23.0809 13.4255L23.3708 14.2962ZM30.3213 10.7268C30.3202 10.7252 30.3191 10.7236 30.3179 10.722L30.3371 10.7156L30.3213 10.7268ZM30.3213 10.7269L30.3372 10.7156L30.5952 10.6296L30.5119 10.8697C30.4351 10.843 30.3685 10.7931 30.3213 10.7269ZM30.5119 10.1303L30.5952 10.3704L30.3372 10.2844L30.3214 10.2731C30.3685 10.2069 30.4351 10.157 30.5119 10.1303ZM30.3213 10.2731L30.3371 10.2844L30.3179 10.278C30.3191 10.2764 30.3202 10.2747 30.3213 10.2731Z" stroke="white"/>
</g>
<defs>
<filter id="filter0_d_44_290" x="8.45007" y="7.63922" width="25.1" height="25.9108" filterUnits="userSpaceOnUse" color-interpolation-filters="sRGB">
<feFlood flood-opacity="0" result="BackgroundImageFix"/>
<feColorMatrix in="SourceAlpha" type="matrix" values="0 0 0 0 0 0 0 0 0 0 0 0 0 0 0 0 0 0 127 0" result="hardAlpha"/>
<feOffset dx="1" dy="1"/>
<feGaussianBlur stdDeviation="1"/>
<feComposite in2="hardAlpha" operator="out"/>
<feColorMatrix type="matrix" values="0 0 0 0 0 0 0 0 0 0 0 0 0 0 0 0 0 0 0.25 0"/>
<feBlend mode="normal" in2="BackgroundImageFix" result="effect1_dropShadow_44_290"/>
<feBlend mode="normal" in="SourceGraphic" in2="effect1_dropShadow_44_290" result="shape"/>
</filter>
<filter id="filter1_d_44_290" x="20.7494" y="8.00111" width="13.001" height="16" filterUnits="userSpaceOnUse" color-interpolation-filters="sRGB">
<feFlood flood-opacity="0" result="BackgroundImageFix"/>
<feColorMatrix in="SourceAlpha" type="matrix" values="0 0 0 0 0 0 0 0 0 0 0 0 0 0 0 0 0 0 127 0" result="hardAlpha"/>
<feOffset dx="1" dy="1"/>
<feGaussianBlur stdDeviation="0.5"/>
<feComposite in2="hardAlpha" operator="out"/>
<feColorMatrix type="matrix" values="0 0 0 0 0 0 0 0 0 0 0 0 0 0 0 0 0 0 0.25 0"/>
<feBlend mode="normal" in2="BackgroundImageFix" result="effect1_dropShadow_44_290"/>
<feBlend mode="normal" in="SourceGraphic" in2="effect1_dropShadow_44_290" result="shape"/>
</filter>
</defs>
</svg>
