<svg width="41" height="41" viewBox="0 0 41 41" fill="none" xmlns="http://www.w3.org/2000/svg">
<circle cx="20.5" cy="20.5" r="20.5" fill="#3396F2"/>
<g filter="url(#filter0_d_44_295)">
<path d="M25.4167 24.3334H23.25V30.8334H20V25.4167H15.6667V30.8334H12.4167V24.3334H10.25L17.8334 17.8334L25.4167 24.3334ZM13.5 9.16669L17.8334 13.5H16.75V16.75H14.5834V13.5H12.4167V16.75H10.25V13.5H9.16669L13.5 9.16669ZM26.5 10.25L31.9167 15.6667H30.8334V20H27.5834V16.75H25.4167V20H23.6184L22.1667 18.7759V15.6667H21.0834L26.5 10.25Z" fill="#96CDFF"/>
<path d="M25.4167 24.3334H23.25V30.8334H20V25.4167H15.6667V30.8334H12.4167V24.3334H10.25L17.8334 17.8334L25.4167 24.3334ZM13.5 9.16669L17.8334 13.5H16.75V16.75H14.5834V13.5H12.4167V16.75H10.25V13.5H9.16669L13.5 9.16669ZM26.5 10.25L31.9167 15.6667H30.8334V20H27.5834V16.75H25.4167V20H23.6184L22.1667 18.7759V15.6667H21.0834L26.5 10.25Z" stroke="white"/>
</g>
<defs>
<filter id="filter0_d_44_295" x="4.95959" y="8.45959" width="29.1642" height="26.8738" filterUnits="userSpaceOnUse" color-interpolation-filters="sRGB">
<feFlood flood-opacity="0" result="BackgroundImageFix"/>
<feColorMatrix in="SourceAlpha" type="matrix" values="0 0 0 0 0 0 0 0 0 0 0 0 0 0 0 0 0 0 127 0" result="hardAlpha"/>
<feOffset dx="-1" dy="2"/>
<feGaussianBlur stdDeviation="1"/>
<feComposite in2="hardAlpha" operator="out"/>
<feColorMatrix type="matrix" values="0 0 0 0 0 0 0 0 0 0 0 0 0 0 0 0 0 0 0.25 0"/>
<feBlend mode="normal" in2="BackgroundImageFix" result="effect1_dropShadow_44_295"/>
<feBlend mode="normal" in="SourceGraphic" in2="effect1_dropShadow_44_295" result="shape"/>
</filter>
</defs>
</svg>
